<svg xmlns="http://www.w3.org/2000/svg" width="30" height="30" viewBox="0 0 30 30"><g><g><path fill="#faf5f2" d="M16.826-.005l.78 4.443c1.066.268 2.089.696 3 1.247l3.663-2.65 2.65 2.65-2.611 3.702c.545.91.984 1.904 1.247 2.961l4.442.74v3.742l-4.442.818a10.917 10.917 0 0 1-1.247 2.962l2.65 3.663-2.65 2.65-3.702-2.611c-.911.555-1.9.979-2.962 1.247L16.826 30h-3.741l-.74-4.442c-1.068-.263-2.086-.658-3.001-1.208L5.68 26.923l-2.65-2.65 2.61-3.663a10.94 10.94 0 0 1-1.246-3l-4.404-.78v-3.741l4.404-.74a10.94 10.94 0 0 1 1.247-3.001L3.07 5.685l2.65-2.65 3.663 2.61c.915-.55 1.933-.944 3-1.207l.702-4.443zM6.85 14.998c0 4.491 3.648 8.145 8.144 8.145a8.147 8.147 0 0 0 8.145-8.145 8.147 8.147 0 0 0-8.145-8.144c-4.496 0-8.144 3.653-8.144 8.144zm14.301 0c0 3.39-2.767 6.157-6.157 6.157s-6.157-2.767-6.157-6.157 2.767-6.157 6.157-6.157 6.157 2.767 6.157 6.157zm-8.768 0a2.563 2.563 0 0 0 2.572 2.572c1.427 0 2.611-1.145 2.611-2.572 0-1.432-1.184-2.572-2.61-2.572a2.56 2.56 0 0 0-2.573 2.572z"/></g></g></svg>