<svg xmlns="http://www.w3.org/2000/svg" width="32" height="31" viewBox="0 0 32 31"><g><g><path fill="#e41092" d="M26.024.001c.692 0 1.257.581 1.257 1.294v10.103l4.36 4.486c.49.505.49 1.313 0 1.818-.246.253-.54.404-.865.404-.324 0-.658-.151-.903-.404L15.97 3.396 2.107 17.662a1.22 1.22 0 0 1-1.768 0 1.307 1.307 0 0 1 0-1.819L15.067.648a1.266 1.266 0 0 1 1.806 0l6.637 6.83V1.295C23.51.582 24.075 0 24.767 0zm3.77 20.005v7.113c0 2.142-1.688 3.88-3.77 3.88H5.916c-2.081 0-3.77-1.738-3.77-3.88v-7.113L15.97 5.78zM12.2 19.359v7.76c0 .712.564 1.293 1.257 1.293h5.027c.692 0 1.256-.581 1.256-1.293v-7.76c0-.712-.564-1.293-1.256-1.293h-5.027c-.693 0-1.257.58-1.257 1.293z"/></g></g></svg>