<svg xmlns="http://www.w3.org/2000/svg" width="33" height="33" viewBox="0 0 33 33"><g><g><path fill="#e41092" d="M26.889 0v12.222h-2.445V2.444H7.334v14.667H4.888V0zM12.222 7.333v2.445H9.778V7.333zm9.778 0v2.445h-7.333V7.333zm-9.778 4.89v2.444H9.778v-2.445zm4.278 0v2.444h-1.833v-2.445zM33 13.443v2.445h-1.222v2.444c0 1.958-.98 3.791-2.445 4.89a6.191 6.191 0 0 1 2.445 4.888v2.444H33V33H18.333v-2.445h1.222v-2.444A6.19 6.19 0 0 1 22 23.222a6.19 6.19 0 0 1-2.445-4.889V15.89h-1.222v-2.445zm-11 4.89C22 20.41 23.59 22 25.667 22c2.076 0 3.666-1.59 3.666-3.667V15.89H22zm-4.278 0c0 .835.143 1.66.401 2.444H2.444V22a2.45 2.45 0 0 0 2.445 2.444h13.755a8.076 8.076 0 0 0-.822 2.445H4.89a4.892 4.892 0 0 1-4.89-4.89v-3.666zm10.389 0s0 2.444-2.444 2.444c-2.445 0-2.445-2.445-2.445-2.445zM22 28.11v2.444h1.222a2.45 2.45 0 0 1 2.445-2.444 2.449 2.449 0 0 1 2.444 2.444h1.222v-2.444c0-2.077-1.59-3.667-3.666-3.667-2.077 0-3.667 1.59-3.667 3.667z"/></g></g></svg>