<svg xmlns="http://www.w3.org/2000/svg" width="32" height="32" viewBox="0 0 32 32"><g><g><path fill="#e41092" d="M13.615 19.96c.255.255.447.452.64.58.255.127.72.327 1.36.52 1.152.32 2.554.575 3.58.64 1.279.065 1.919.832 1.919 1.6 0 .192.005.307-.06.5v.08c0 .062-.08.055-.08.12-.128.255-.305.447-.56.64-.255.192-.647.32-1.16.32h-3.64c-1.534 0-3.646-.575-3.839-.64h-.08c-.192-.065-.315.007-.38.2-.065.127.008.315.2.38.065 0 2.172.64 3.9.64h3.84c.64 0 1.591.06 2.679-.58l6.859-4.6c1.535-.96 3.262-.513 3.2 1.28 0 .64-.635 1.455-1.66 2.16-.833.575-10.192 6.667-10.959 7.18-.767.512-1.6 1.02-2.88 1.02-.704 0-1.534-.188-2.56-.7-.64-.32-2.799-1.468-4.398-2.3l-1.36-.72c-1.025-.513-1.333-.433-2.1.08l-1.74 1.14c-.127.065-.307.125-.5.06-.127-.065-.315-.188-.38-.38l-3.4-7.54c-.127-.32 0-.713.32-.84 5.248-2.368 6.66-2.94 8.26-2.94 3.072 0 4.212 1.267 4.979 2.1zm11.018-1.4l-4.159 2.82c-.32-.128-.773-.26-1.22-.26-.64 0-1.527-.128-2.36-.32 1.153-.703 3.073-1.925 3.52-2.18.64-.448 1.395-.7 2.1-.7 1.152 0 2.12.64 2.12.64zm3.96 1.16l-7.04 4.66-.06.06-.06.08c.256-.385.38-.835.38-1.22 0-.575-.247-1.153-.76-1.6l3.2-2.18c1.088-.705 1.84-.96 2.48-.96.64 0 1.667.327 1.86 1.16zm-7.57-12.493a7.194 7.194 0 0 1-7.226 7.227 7.194 7.194 0 0 1-7.225-7.227A7.194 7.194 0 0 1 13.797 0a7.194 7.194 0 0 1 7.226 7.227zm3.28 0c0 3.69-2.722 6.714-6.329 7.124 2.46-1.393 4.1-4.09 4.1-7.124s-1.64-5.648-4.1-7.125c3.527.41 6.33 3.434 6.33 7.125zm3.28 0c0 3.69-2.723 6.714-6.33 7.124 2.46-1.393 4.1-4.09 4.1-7.124s-1.64-5.648-4.1-7.125c3.527.41 6.33 3.434 6.33 7.125zm-14.35-3.28c-1.146.246-1.819.993-1.819 1.896 0 1.067.75 1.537 1.897 1.948.82.246 1.153.512 1.153.922 0 .41-.426.64-1 .64-.656 0-1.306-.24-1.716-.486l-.334 1.23c.41.163 1.083.41 1.82.41v.974h1.05v-1.05c1.23-.164 1.88-.99 1.717-1.974 0-.984-.487-1.563-1.717-1.973-.82-.327-1.23-.57-1.23-.897 0-.247.24-.564.897-.564.82 0 1.317.246 1.563.41l.333-1.23c-.41-.164-.826-.333-1.563-.333v-.897h-1.05z"/></g></g></svg>