<svg xmlns="http://www.w3.org/2000/svg" width="35" height="31" viewBox="0 0 35 31"><g><g><path fill="#fffaf7" d="M21.374 3.523L25.06 0l7.372 7.045h2.58l-3.824 13.43c-.351 1.228-1.48 2.07-2.81 2.07h-1.843c2.424 0 4.423 1.91 4.423 4.228 0 2.317-1.999 4.227-4.423 4.227-2.425 0-4.424-1.91-4.424-4.227 0-2.318 1.999-4.228 4.424-4.228h-13.27c-2.425 0-4.423 1.91-4.423 4.228C8.842 29.09 10.84 31 13.265 31c2.424 0 4.423-1.91 4.423-4.227 0-2.318-1.999-4.228-4.423-4.228h-1.797c-1.354 0-2.528-.858-2.857-2.113L4.741 5.636H1.47c-.812 0-1.475-.633-1.475-1.409S.658 2.818 1.47 2.818H4.74c1.353 0 2.528.859 2.857 2.114l3.87 14.795h16.91l2.81-9.864H11.053l-.737-2.818h.092l-.046-.044L17.688 0zM14.51 7.045h6.404l-3.225-3.038zm8.985-1.497l1.566 1.497h3.18l-3.18-3.038zM11.79 26.773c0 .792.645 1.409 1.475 1.409.83 0 1.474-.617 1.474-1.41 0-.792-.645-1.408-1.474-1.408-.83 0-1.475.616-1.475 1.409zm13.27 0c0 .792.645 1.409 1.475 1.409.829 0 1.474-.617 1.474-1.41 0-.792-.645-1.408-1.474-1.408-.83 0-1.475.616-1.475 1.409z"/></g></g></svg>