<svg xmlns="http://www.w3.org/2000/svg" width="26" height="28" viewBox="0 0 26 28"><g><g><path  d="M26 15.75C26 22.515 20.18 28 13 28S0 22.515 0 15.75C0 10.2 3.916 5.514 9.286 4.008v3.718a9.322 9.322 0 0 0-2.852 1.837c-1.754 1.652-2.72 3.85-2.72 6.187s.966 4.534 2.72 6.187C8.188 23.59 10.519 24.5 13 24.5c2.48 0 4.812-.91 6.566-2.563 1.754-1.653 2.72-3.85 2.72-6.187s-.966-4.535-2.72-6.187a9.317 9.317 0 0 0-2.852-1.837V4.008C22.084 5.514 26 10.201 26 15.75zM11.143 0h3.714v14h-3.714z"/></g></g></svg>