<svg xmlns="http://www.w3.org/2000/svg" width="29" height="29" viewBox="0 0 29 29"><g><g><path fill="#b9b8b8" d="M15 0c7.8 0 14.125 6.352 14.125 14.187 0 7.836-6.324 14.188-14.125 14.188S.875 22.023.875 14.187C.875 6.352 7.199 0 15 0z"/></g><g><path fill="#ebe9e8" d="M11.813 13.223h6.28c.057.337.107.679.107 1.125 0 3.877-2.549 6.63-6.387 6.63-3.679 0-6.652-3.032-6.652-6.785 0-3.752 2.973-6.785 6.652-6.789 1.793 0 3.295.67 4.455 1.775l-1.805 1.774c-.494-.483-1.355-1.045-2.65-1.045-2.27 0-4.124 1.92-4.124 4.285 0 2.366 1.854 4.287 4.124 4.287 2.634 0 3.622-1.929 3.773-2.929h-3.773zm14.255 1.804h-1.96v1.999h-1.96v-2h-1.96v-1.999h1.96v-1.999h1.96v2h1.96z"/></g></g></svg>