<svg xmlns="http://www.w3.org/2000/svg" width="29" height="29" viewBox="0 0 29 29"><g><g><path fill="#b9b8b8" d="M14.562.625c7.819 0 14.157 6.352 14.157 14.187C28.719 22.648 22.38 29 14.562 29 6.744 29 .406 22.648.406 14.812.406 6.977 6.744.625 14.562.625z"/></g><g><path fill="#ebe9e8" d="M23.18 9.626a6.936 6.936 0 0 1-1.96.535 3.32 3.32 0 0 0 1.495-1.889 7.168 7.168 0 0 1-2.158.836 3.384 3.384 0 0 0-2.49-1.087c-1.877 0-3.404 1.538-3.404 3.427 0 .268.033.535.1.786A9.677 9.677 0 0 1 7.74 8.64a3.428 3.428 0 0 0-.465 1.722c0 1.203.597 2.24 1.51 2.858a3.3 3.3 0 0 1-1.543-.434v.05a3.434 3.434 0 0 0 2.74 3.36 3.14 3.14 0 0 1-.897.117c-.216 0-.432-.017-.648-.067a3.42 3.42 0 0 0 3.188 2.39 6.816 6.816 0 0 1-5.048 1.422 9.638 9.638 0 0 0 5.214 1.538c6.275 0 9.696-5.216 9.696-9.763l-.017-.435a6.65 6.65 0 0 0 1.71-1.772z"/></g></g></svg>