<svg xmlns="http://www.w3.org/2000/svg" width="29" height="29" viewBox="0 0 29 29"><g><g><path fill="#b9b8b8" d="M14.86.625C22.668.625 29 6.977 29 14.812 29 22.648 22.669 29 14.86 29 7.05 29 .718 22.648.718 14.812.719 6.977 7.049.625 14.859.625z"/></g><g><path fill="#ebe9e8" d="M23.9 11.301s.177 1.422.18 2.84v1.33c0 1.423-.177 2.842-.177 2.842s-.174 1.21-.71 1.74c-.68.7-1.439.703-1.787.744-2.494.175-6.242.182-6.242.182s-4.635-.041-6.063-.175c-.397-.076-1.289-.052-1.968-.75-.533-.532-.707-1.741-.707-1.741s-.178-1.423-.178-2.841v-1.33c0-1.422.178-2.841.178-2.841s.17-1.21.707-1.741c.68-.7 1.438-.702 1.787-.744 2.493-.178 6.238-.178 6.238-.178h.006s3.745 0 6.238.178c.349.042 1.108.045 1.787.744.536.531.71 1.741.71 1.741zm-10.581 5.785l4.816-2.457-4.816-2.475z"/></g></g></svg>